<mxfile host="app.diagrams.net" modified="2023-03-04T10:00:21.217Z" agent="5.0 (Windows NT 10.0; Win64; x64) AppleWebKit/537.36 (KHTML, like Gecko) Chrome/110.0.0.0 Safari/537.36" etag="W70EAYzLWdFN_9yEwfrO" version="21.0.2" type="github">
  <diagram name="Страница 1" id="MnHuWVR-3S42VmBqUqYN">
    <mxGraphModel dx="880" dy="484" grid="1" gridSize="10" guides="1" tooltips="1" connect="1" arrows="1" fold="1" page="1" pageScale="1" pageWidth="827" pageHeight="1169" math="0" shadow="0">
      <root>
        <mxCell id="0" />
        <mxCell id="1" parent="0" />
        <mxCell id="7V5GvWtCxqXcivTW7_cT-3" style="edgeStyle=orthogonalEdgeStyle;rounded=0;orthogonalLoop=1;jettySize=auto;html=1;exitX=0.5;exitY=1;exitDx=0;exitDy=0;entryX=0.5;entryY=0;entryDx=0;entryDy=0;" edge="1" parent="1" source="7V5GvWtCxqXcivTW7_cT-1" target="7V5GvWtCxqXcivTW7_cT-2">
          <mxGeometry relative="1" as="geometry" />
        </mxCell>
        <mxCell id="7V5GvWtCxqXcivTW7_cT-1" value="START" style="rounded=1;whiteSpace=wrap;html=1;" vertex="1" parent="1">
          <mxGeometry x="360" y="30" width="120" height="50" as="geometry" />
        </mxCell>
        <mxCell id="7V5GvWtCxqXcivTW7_cT-5" value="" style="edgeStyle=orthogonalEdgeStyle;rounded=0;orthogonalLoop=1;jettySize=auto;html=1;" edge="1" parent="1" source="7V5GvWtCxqXcivTW7_cT-2" target="7V5GvWtCxqXcivTW7_cT-4">
          <mxGeometry relative="1" as="geometry" />
        </mxCell>
        <mxCell id="7V5GvWtCxqXcivTW7_cT-2" value="NUM1&lt;br&gt;NUM2" style="shape=parallelogram;perimeter=parallelogramPerimeter;whiteSpace=wrap;html=1;fixedSize=1;" vertex="1" parent="1">
          <mxGeometry x="360" y="160" width="120" height="60" as="geometry" />
        </mxCell>
        <mxCell id="7V5GvWtCxqXcivTW7_cT-7" value="TRUE" style="edgeStyle=orthogonalEdgeStyle;rounded=0;orthogonalLoop=1;jettySize=auto;html=1;" edge="1" parent="1" source="7V5GvWtCxqXcivTW7_cT-4" target="7V5GvWtCxqXcivTW7_cT-6">
          <mxGeometry x="-0.5556" y="-20" relative="1" as="geometry">
            <mxPoint as="offset" />
          </mxGeometry>
        </mxCell>
        <mxCell id="7V5GvWtCxqXcivTW7_cT-9" value="FALSE" style="edgeStyle=orthogonalEdgeStyle;rounded=0;orthogonalLoop=1;jettySize=auto;html=1;" edge="1" parent="1" source="7V5GvWtCxqXcivTW7_cT-4" target="7V5GvWtCxqXcivTW7_cT-8">
          <mxGeometry x="-0.5833" y="10" relative="1" as="geometry">
            <mxPoint as="offset" />
          </mxGeometry>
        </mxCell>
        <mxCell id="7V5GvWtCxqXcivTW7_cT-4" value="NUM1&amp;gt;NUM2" style="rhombus;whiteSpace=wrap;html=1;" vertex="1" parent="1">
          <mxGeometry x="330" y="290" width="180" height="80" as="geometry" />
        </mxCell>
        <mxCell id="7V5GvWtCxqXcivTW7_cT-12" style="edgeStyle=orthogonalEdgeStyle;rounded=0;orthogonalLoop=1;jettySize=auto;html=1;entryX=0.5;entryY=0;entryDx=0;entryDy=0;" edge="1" parent="1" source="7V5GvWtCxqXcivTW7_cT-6" target="7V5GvWtCxqXcivTW7_cT-10">
          <mxGeometry relative="1" as="geometry" />
        </mxCell>
        <mxCell id="7V5GvWtCxqXcivTW7_cT-6" value="MAX=NUM1" style="whiteSpace=wrap;html=1;" vertex="1" parent="1">
          <mxGeometry x="360" y="460" width="120" height="60" as="geometry" />
        </mxCell>
        <mxCell id="7V5GvWtCxqXcivTW7_cT-13" style="edgeStyle=orthogonalEdgeStyle;rounded=0;orthogonalLoop=1;jettySize=auto;html=1;entryX=0.5;entryY=0;entryDx=0;entryDy=0;" edge="1" parent="1" source="7V5GvWtCxqXcivTW7_cT-8" target="7V5GvWtCxqXcivTW7_cT-10">
          <mxGeometry relative="1" as="geometry" />
        </mxCell>
        <mxCell id="7V5GvWtCxqXcivTW7_cT-8" value="MAX=NUM2" style="whiteSpace=wrap;html=1;" vertex="1" parent="1">
          <mxGeometry x="560" y="460" width="120" height="60" as="geometry" />
        </mxCell>
        <mxCell id="7V5GvWtCxqXcivTW7_cT-14" value="" style="edgeStyle=orthogonalEdgeStyle;rounded=0;orthogonalLoop=1;jettySize=auto;html=1;" edge="1" parent="1" source="7V5GvWtCxqXcivTW7_cT-10" target="7V5GvWtCxqXcivTW7_cT-11">
          <mxGeometry relative="1" as="geometry" />
        </mxCell>
        <mxCell id="7V5GvWtCxqXcivTW7_cT-10" value="MAX" style="shape=document;whiteSpace=wrap;html=1;boundedLbl=1;" vertex="1" parent="1">
          <mxGeometry x="460" y="570" width="120" height="80" as="geometry" />
        </mxCell>
        <mxCell id="7V5GvWtCxqXcivTW7_cT-11" value="FINISH" style="rounded=1;whiteSpace=wrap;html=1;" vertex="1" parent="1">
          <mxGeometry x="460" y="700" width="120" height="60" as="geometry" />
        </mxCell>
      </root>
    </mxGraphModel>
  </diagram>
</mxfile>
